<?xml version="1.0" encoding="utf-8"?>
<!-- Generator: Adobe Illustrator 28.0.0, SVG Export Plug-In . SVG Version: 6.00 Build 0)  -->
<svg version="1.1" id="Layer_1" xmlns="http://www.w3.org/2000/svg" xmlns:xlink="http://www.w3.org/1999/xlink" x="0px" y="0px"
	 viewBox="0 0 160 160" style="enable-background:new 0 0 160 160;" xml:space="preserve">
<style type="text/css">
	.st0{fill:#441885;}
</style>
<g>
	<path class="st0" d="M119.62,39.56c-22.34-21.88-58.18-21.51-80.06,0.83c-21.88,22.34-21.51,58.18,0.83,80.06
		c22.34,21.88,58.18,21.51,80.06-0.83C142.33,97.28,141.96,61.44,119.62,39.56z M111.02,114.44c-2.68,3.03-6.43,4.55-11.25,4.55
		c-0.6,0-1.19-0.02-1.79-0.07c-8.2-1.99-13.42-7.18-15.7-15.56c-1.7,4.55-4.14,8.08-7.3,10.6c-4.22,3.36-8.92,5.04-14.1,5.04
		c-7.19-0.84-11.79-2.94-13.8-6.31c-1.24-2.05-1.86-4.38-1.86-6.99c0-1.67,0.26-3.46,0.79-5.38l3.8,0.79
		c-0.41,1.53-0.61,2.95-0.61,4.26c0,2.27,0.6,4.2,1.79,5.81c7.54,10.11,16.18-6.07,17.67-12.54c0.74-3.18,1.11-6.24,1.11-9.18
		c0-3.51-0.74-7.53-2.22-12.06c-1.48-4.53-4.83-6.9-10.04-7.11c-3.97,0.07-7.84,1.39-11.61,3.94c-3.78,2.56-6.56,6.19-8.35,10.9
		l-3.26-0.14c2.58-8.91,7.66-14.96,15.23-18.14c3.68-1.55,7.44-2.33,11.29-2.33c4.06,0,8.21,0.87,12.44,2.62
		c2.86,1.81,5.19,3.99,6.97,6.52c0.19-3.26,0.48-7.11,0.87-11.56c0.75-8.54,2.86-18.75,6.33-30.63l16.77-0.07
		c-0.6,2.17-1.29,4.55-2.08,7.13c-2.44,7.74-4.5,16.24-6.2,25.48c-1.51,8-2.26,16.2-2.26,24.59c0,1.29,0.08,4.69,0.25,10.2
		c0.12,4.03,1.44,8.2,3.99,11.37c3.12,3.88,6.12,4.19,9.96,0.99c1.94-1.61,3.02-5.09,3.26-10.45l3.55-0.29
		c0.1,0.96,0.14,1.88,0.14,2.76C114.79,107.85,113.53,111.6,111.02,114.44z"/>
	<g>
		<path class="st0" d="M15.74,86.16L5.26,86.87l-0.04-0.55l9.93-0.68l-0.22-3.21l0.56-0.04L15.74,86.16z"/>
		<path class="st0" d="M15.77,75.35c-0.04,0.63-0.26,1.12-0.63,1.47c-0.42,0.39-1.01,0.56-1.77,0.51L5,76.73l0.04-0.56l8.37,0.6
			c0.59,0.04,1.04-0.08,1.35-0.35c0.27-0.24,0.42-0.61,0.46-1.11c0.03-0.48-0.06-0.87-0.29-1.17c-0.27-0.32-0.7-0.5-1.29-0.54
			L5.27,73l0.04-0.56l8.37,0.6c0.76,0.05,1.32,0.31,1.68,0.75C15.68,74.2,15.81,74.72,15.77,75.35z"/>
		<path class="st0" d="M17.12,66.04c-0.14,0.62-0.41,1.07-0.84,1.37c-0.47,0.33-1.08,0.41-1.82,0.24L8.34,66.3
			c-0.74-0.17-1.26-0.49-1.55-0.99c-0.26-0.45-0.32-0.98-0.19-1.59c0.13-0.62,0.41-1.07,0.84-1.37c0.47-0.33,1.08-0.41,1.82-0.25
			l1.01,0.22l-0.12,0.54l-1.01-0.22c-0.59-0.13-1.05-0.08-1.39,0.16c-0.3,0.2-0.5,0.54-0.61,1.03c-0.11,0.49-0.07,0.89,0.12,1.2
			c0.21,0.35,0.61,0.59,1.19,0.72l6.13,1.35c0.58,0.13,1.05,0.08,1.39-0.16c0.3-0.2,0.5-0.54,0.61-1.03
			c0.11-0.49,0.07-0.89-0.12-1.2c-0.21-0.35-0.61-0.59-1.19-0.72l-1.48-0.33l0.12-0.54l1.48,0.33c0.74,0.17,1.26,0.49,1.55,0.99
			C17.2,64.9,17.26,65.43,17.12,66.04z"/>
		<path class="st0" d="M19.06,58.73l-9.91-3.51l0.19-0.52l9.91,3.5L19.06,58.73z"/>
		<path class="st0" d="M23.22,49.24l-2.74-0.71l-1.3,2.59l2.2,1.78l-0.26,0.51l-8.34-6.81l0.25-0.5l10.44,2.63L23.22,49.24z
			 M18.75,50.76l1.18-2.35l-5.98-1.54L18.75,50.76z"/>
		<path class="st0" d="M20.16,34.66l8.55,6.1l-0.18,0.24l-9.06-2.04l6.96,4.97l-0.32,0.45l-8.55-6.1l0.18-0.25l9.06,2.04l-6.96-4.97
			L20.16,34.66z"/>
		<path class="st0" d="M35.17,33.55l-2.4-1.5l-2.02,2.08l1.56,2.36l-0.4,0.41l-5.9-9.01l0.39-0.4l9.16,5.65L35.17,33.55z
			 M30.45,33.64l1.83-1.88l-5.23-3.27L30.45,33.64z"/>
		<path class="st0" d="M38.13,21.44c0.81-0.58,1.63-0.78,2.47-0.59c0.84,0.18,1.52,0.63,2.03,1.35c0.52,0.72,0.71,1.53,0.57,2.4
			c-0.14,0.87-0.58,1.57-1.31,2.09c-0.74,0.53-1.54,0.71-2.41,0.57c-0.87-0.15-1.57-0.58-2.09-1.31c-0.56-0.79-0.77-1.6-0.63-2.43
			C36.9,22.68,37.36,21.99,38.13,21.44z"/>
		<path class="st0" d="M52.15,21.94c-0.57,0.27-1.1,0.34-1.6,0.18c-0.55-0.17-0.99-0.6-1.32-1.28l-2.72-5.66
			c-0.33-0.69-0.39-1.3-0.18-1.83c0.19-0.48,0.57-0.86,1.14-1.13c0.57-0.27,1.1-0.34,1.6-0.18c0.55,0.17,0.99,0.6,1.32,1.28
			l0.45,0.93l-0.5,0.24l-0.45-0.94c-0.26-0.54-0.58-0.87-0.98-1c-0.34-0.11-0.74-0.06-1.19,0.16c-0.45,0.22-0.74,0.49-0.87,0.83
			c-0.15,0.38-0.09,0.85,0.17,1.39l2.72,5.66c0.26,0.54,0.59,0.87,0.98,1c0.34,0.11,0.74,0.06,1.19-0.16
			c0.45-0.22,0.74-0.49,0.87-0.83c0.15-0.38,0.09-0.84-0.17-1.39l-0.66-1.37l0.5-0.24l0.66,1.37c0.33,0.69,0.39,1.3,0.18,1.83
			C53.1,21.29,52.72,21.67,52.15,21.94z"/>
		<path class="st0" d="M61,18.47c-0.6,0.19-1.13,0.16-1.59-0.06c-0.53-0.25-0.9-0.73-1.12-1.46l-1.84-6
			c-0.22-0.72-0.19-1.34,0.11-1.84c0.25-0.44,0.68-0.76,1.28-0.94c0.61-0.19,1.15-0.17,1.61,0.06c0.53,0.26,0.9,0.74,1.12,1.46
			l1.84,6c0.22,0.72,0.19,1.33-0.11,1.84C62.05,17.97,61.62,18.28,61,18.47z M58,8.7c-0.45,0.14-0.77,0.37-0.96,0.69
			c-0.21,0.36-0.23,0.82-0.06,1.4l1.84,6c0.18,0.57,0.45,0.95,0.83,1.13c0.32,0.16,0.72,0.17,1.19,0.03
			c0.48-0.15,0.8-0.38,0.98-0.69c0.21-0.37,0.23-0.84,0.06-1.4l-1.84-5.99c-0.18-0.56-0.45-0.94-0.83-1.13
			C58.86,8.57,58.46,8.56,58,8.7z"/>
		<path class="st0" d="M72.36,15.9l-0.58,0.09l-2.16-4.39l-0.09,0.01l-1.59,0.25l0.71,4.61l-0.55,0.09L66.51,6.16l2.14-0.33
			c0.62-0.1,1.15,0,1.58,0.29C70.7,6.45,71,6.98,71.11,7.74l0.2,1.32c0.11,0.75-0.01,1.35-0.36,1.8c-0.2,0.24-0.47,0.44-0.79,0.58
			L72.36,15.9z M70.51,10.52c0.26-0.32,0.35-0.78,0.26-1.38l-0.2-1.32c-0.09-0.59-0.31-1.01-0.66-1.24c-0.31-0.21-0.7-0.27-1.17-0.2
			l-1.59,0.24l0.71,4.67l1.59-0.24C69.92,10.99,70.28,10.8,70.51,10.52z"/>
		<path class="st0" d="M81.89,15.46l-0.59,0.01l-1.54-4.64l-0.09,0l-1.61,0.03l0.08,4.67l-0.56,0.01L77.42,5.02l2.16-0.04
			c0.63-0.01,1.14,0.16,1.52,0.5c0.43,0.38,0.65,0.96,0.66,1.72l0.02,1.33c0.01,0.76-0.19,1.34-0.6,1.74
			c-0.24,0.21-0.53,0.37-0.86,0.47L81.89,15.46z M80.78,9.88c0.31-0.28,0.46-0.73,0.45-1.33L81.2,7.22
			c-0.01-0.6-0.17-1.04-0.49-1.32c-0.27-0.25-0.65-0.36-1.13-0.36l-1.61,0.03l0.08,4.73l1.61-0.03
			C80.14,10.27,80.51,10.13,80.78,9.88z"/>
		<path class="st0" d="M92.08,6.51L88.9,6.07l-0.58,4.25l2.25,0.31l-0.08,0.55l-2.25-0.31l-0.62,4.51l3.18,0.43l-0.07,0.55L87,15.85
			l1.42-10.41l3.73,0.51L92.08,6.51z"/>
		<path class="st0" d="M99.96,18.62l0.19-2.82L97.37,15l-1.35,2.48l-0.55-0.16l5.18-9.43l0.53,0.16l-0.69,10.74L99.96,18.62z
			 M97.65,14.5l2.52,0.73l0.43-6.16L97.65,14.5z"/>
		<path class="st0" d="M105.21,20.6l4.37-9.55l0.5,0.23l-4.14,9.05l2.92,1.34l-0.23,0.51L105.21,20.6z"/>
		<path class="st0" d="M114.73,25.82c-0.53-0.34-0.86-0.76-0.99-1.26c-0.14-0.56-0.01-1.15,0.4-1.79l4.54-7.06l0.47,0.3l-4.54,7.06
			c-0.32,0.5-0.43,0.95-0.34,1.36c0.08,0.35,0.34,0.66,0.76,0.93c0.41,0.26,0.79,0.36,1.17,0.3c0.41-0.08,0.77-0.37,1.09-0.87
			l4.54-7.06l0.47,0.3l-4.54,7.06c-0.41,0.64-0.9,1.01-1.46,1.11C115.78,26.29,115.26,26.16,114.73,25.82z"/>
		<path class="st0" d="M122.22,31.45c-0.48-0.41-0.74-0.88-0.8-1.39c-0.06-0.57,0.16-1.14,0.66-1.72l4.12-4.73
			c0.5-0.57,1.03-0.87,1.61-0.89c0.52-0.01,1.01,0.19,1.49,0.6c0.48,0.41,0.74,0.88,0.8,1.39c0.06,0.57-0.16,1.14-0.66,1.72
			l-0.68,0.78l-0.42-0.36l0.68-0.78c0.4-0.45,0.57-0.88,0.53-1.29c-0.03-0.36-0.24-0.71-0.61-1.03s-0.75-0.48-1.11-0.47
			c-0.41,0.02-0.81,0.25-1.21,0.7l-4.12,4.73c-0.39,0.45-0.57,0.88-0.53,1.29c0.03,0.36,0.24,0.71,0.61,1.03
			c0.38,0.33,0.75,0.48,1.11,0.47c0.41-0.02,0.81-0.25,1.21-0.7l1-1.14l0.42,0.37l-1,1.14c-0.5,0.57-1.03,0.87-1.61,0.89
			C123.19,32.07,122.7,31.87,122.22,31.45z"/>
		<path class="st0" d="M127.71,36.64l7.81-7.03l0.37,0.41l-7.81,7.03L127.71,36.64z"/>
		<path class="st0" d="M134.06,44.8l1.92-2.07l-1.66-2.37l-2.61,1.09l-0.33-0.47l9.96-4.09l0.32,0.46l-7.28,7.93L134.06,44.8z
			 M134.86,40.15l1.5,2.15l4.2-4.52L134.86,40.15z"/>
		<path class="st0" d="M148.34,49.07l-9.44,4.62l-0.13-0.27l6.1-7l-7.69,3.76l-0.24-0.5l9.44-4.62l0.13,0.27l-6.1,7l7.68-3.76
			L148.34,49.07z"/>
		<path class="st0" d="M142.16,62.76l2.46-1.39l-0.86-2.77l-2.82,0.25l-0.17-0.54l10.73-0.88l0.16,0.53l-9.34,5.36L142.16,62.76z
			 M144.33,58.57l0.78,2.51l5.37-3.04L144.33,58.57z"/>
		<path class="st0" d="M151.38,71.18c0.12,0.99-0.1,1.8-0.66,2.45c-0.56,0.65-1.28,1.03-2.16,1.14c-0.89,0.11-1.68-0.11-2.38-0.65
			c-0.7-0.54-1.1-1.26-1.21-2.15c-0.11-0.9,0.11-1.69,0.65-2.39c0.55-0.7,1.27-1.1,2.15-1.21c0.96-0.12,1.77,0.09,2.43,0.61
			C150.87,69.5,151.26,70.24,151.38,71.18z"/>
		<path class="st0" d="M144.23,83.3c0.03-0.63,0.23-1.12,0.6-1.49c0.41-0.4,1-0.58,1.76-0.54l6.27,0.32
			c0.76,0.04,1.32,0.28,1.69,0.72c0.33,0.4,0.48,0.91,0.45,1.54c-0.03,0.63-0.23,1.13-0.6,1.49c-0.41,0.4-1,0.58-1.76,0.54
			l-1.03-0.05l0.03-0.56l1.03,0.05c0.6,0.03,1.05-0.1,1.34-0.38c0.26-0.25,0.41-0.62,0.43-1.12c0.03-0.5-0.08-0.88-0.32-1.16
			c-0.26-0.32-0.7-0.49-1.3-0.52l-6.27-0.32c-0.6-0.03-1.05,0.1-1.34,0.38c-0.26,0.25-0.41,0.62-0.43,1.12
			c-0.03,0.5,0.08,0.88,0.32,1.16c0.26,0.31,0.7,0.49,1.3,0.52l1.51,0.08l-0.03,0.56l-1.51-0.08c-0.76-0.04-1.32-0.28-1.69-0.72
			C144.35,84.45,144.2,83.93,144.23,83.3z"/>
		<path class="st0" d="M143.07,92.66c0.12-0.62,0.4-1.08,0.81-1.37c0.47-0.34,1.07-0.44,1.82-0.29l6.15,1.23
			c0.74,0.15,1.27,0.47,1.56,0.97c0.27,0.43,0.34,0.96,0.22,1.57c-0.13,0.63-0.4,1.09-0.81,1.39c-0.48,0.34-1.08,0.44-1.82,0.29
			l-6.15-1.23c-0.74-0.15-1.26-0.47-1.57-0.97C143.02,93.82,142.94,93.29,143.07,92.66z M153.09,94.66
			c0.09-0.46,0.04-0.85-0.15-1.18c-0.21-0.36-0.62-0.6-1.2-0.71l-6.15-1.23c-0.59-0.12-1.05-0.05-1.39,0.2
			c-0.29,0.21-0.49,0.55-0.59,1.03c-0.1,0.49-0.05,0.89,0.14,1.19c0.22,0.36,0.63,0.6,1.21,0.71l6.15,1.23
			c0.58,0.11,1.04,0.05,1.39-0.2C152.8,95.48,153,95.13,153.09,94.66z"/>
		<path class="st0" d="M139.91,103.9l0.2-0.55l4.89,0.19l0.03-0.08l0.54-1.51l-4.39-1.58l0.19-0.52l9.89,3.55l-0.73,2.03
			c-0.21,0.59-0.55,1.01-1.01,1.25c-0.51,0.26-1.12,0.26-1.84,0.01l-1.25-0.45c-0.72-0.26-1.19-0.65-1.41-1.18
			c-0.11-0.3-0.16-0.62-0.13-0.97L139.91,103.9z M145.53,104.84c0.16,0.39,0.52,0.68,1.09,0.88l1.26,0.45
			c0.56,0.2,1.03,0.2,1.4,0.01c0.33-0.17,0.57-0.48,0.73-0.94l0.54-1.51l-4.45-1.6l-0.54,1.51
			C145.39,104.1,145.39,104.5,145.53,104.84z"/>
		<path class="st0" d="M135.74,112.45l0.28-0.52l4.81,0.91l0.04-0.08l0.76-1.42l-4.11-2.21l0.26-0.49l9.26,4.97l-1.02,1.9
			c-0.3,0.56-0.69,0.92-1.18,1.09c-0.54,0.19-1.15,0.1-1.82-0.26l-1.18-0.63c-0.67-0.36-1.08-0.82-1.22-1.37
			c-0.07-0.31-0.07-0.64,0.02-0.98L135.74,112.45z M141.16,114.2c0.1,0.41,0.41,0.75,0.94,1.04l1.18,0.63
			c0.53,0.28,0.99,0.35,1.38,0.21c0.35-0.12,0.64-0.39,0.86-0.81l0.76-1.41l-4.17-2.24l-0.76,1.41
			C141.13,113.45,141.07,113.84,141.16,114.2z"/>
		<path class="st0" d="M138.7,125.76l1.91-2.58l-3.45-2.55l-1.35,1.82l-0.45-0.33l1.35-1.82l-3.66-2.7l-1.91,2.58l-0.45-0.33
			l2.24-3.03l8.45,6.24l-2.24,3.03L138.7,125.76z"/>
		<path class="st0" d="M124.33,126.83l2.38,1.52l2.04-2.06l-1.54-2.37l0.4-0.41l5.82,9.06l-0.39,0.39l-9.11-5.73L124.33,126.83z
			 M129.05,126.78l-1.85,1.86l5.21,3.32L129.05,126.78z"/>
		<path class="st0" d="M120.07,130.52l6.32,8.4l-0.44,0.33l-5.98-7.95l-2.57,1.93l-0.34-0.44L120.07,130.52z"/>
		<path class="st0" d="M110.98,136.39c0.55-0.3,1.08-0.39,1.58-0.27c0.56,0.14,1.02,0.54,1.39,1.21l4.05,7.35l-0.49,0.27l-4.05-7.35
			c-0.29-0.52-0.63-0.83-1.03-0.94c-0.35-0.09-0.74-0.02-1.18,0.22c-0.42,0.23-0.7,0.52-0.82,0.88c-0.12,0.4-0.04,0.86,0.25,1.38
			l4.05,7.35l-0.49,0.27l-4.05-7.35c-0.37-0.67-0.46-1.27-0.28-1.82C110.07,137.09,110.43,136.69,110.98,136.39z"/>
		<path class="st0" d="M102.46,140.3c0.59-0.22,1.13-0.23,1.61-0.04c0.53,0.22,0.93,0.68,1.19,1.39l2.19,5.88
			c0.27,0.71,0.27,1.32,0.02,1.84c-0.24,0.46-0.65,0.8-1.24,1.02s-1.12,0.23-1.6,0.04c-0.53-0.22-0.93-0.69-1.2-1.4l-0.36-0.97
			l0.52-0.19l0.36,0.97c0.21,0.56,0.5,0.92,0.88,1.08c0.33,0.14,0.73,0.13,1.2-0.05c0.47-0.18,0.78-0.42,0.94-0.75
			c0.18-0.37,0.17-0.83-0.04-1.39l-2.19-5.88c-0.21-0.56-0.5-0.92-0.88-1.08c-0.33-0.14-0.73-0.13-1.2,0.04
			c-0.47,0.18-0.78,0.43-0.94,0.75c-0.18,0.37-0.17,0.83,0.04,1.39l0.53,1.42l-0.52,0.19l-0.53-1.42c-0.26-0.71-0.27-1.32-0.01-1.84
			C101.46,140.86,101.87,140.52,102.46,140.3z"/>
		<path class="st0" d="M95.29,142.65l2.44,10.22l-0.54,0.13l-2.44-10.22L95.29,142.65z"/>
		<path class="st0" d="M85.14,144.31l0.9,2.68l2.88-0.32l0.29-2.81l0.56-0.06l-1.17,10.7l-0.55,0.06l-3.49-10.18L85.14,144.31z
			 M88.85,147.23l-2.61,0.29l1.97,5.85L88.85,147.23z"/>
		<path class="st0" d="M74.6,154.83l0.43-10.5l0.3,0.01l3.25,8.69l0.35-8.55l0.56,0.02l-0.43,10.5l-0.3-0.01l-3.25-8.7l-0.35,8.55
			L74.6,154.83z"/>
		<path class="st0" d="M65.36,142.85l0.05,2.83l2.84,0.56l1.13-2.59l0.56,0.11l-4.34,9.85l-0.55-0.11l-0.26-10.76L65.36,142.85z
			 M68.02,146.75l-2.58-0.51l0.11,6.17L68.02,146.75z"/>
		<path class="st0" d="M53.68,146.98c-0.92-0.36-1.54-0.94-1.84-1.75c-0.31-0.8-0.3-1.62,0.03-2.44c0.33-0.83,0.9-1.43,1.7-1.78
			c0.81-0.36,1.63-0.37,2.47-0.04c0.84,0.33,1.44,0.9,1.79,1.71c0.35,0.81,0.37,1.63,0.04,2.47c-0.35,0.9-0.92,1.52-1.7,1.85
			C55.4,147.34,54.56,147.33,53.68,146.98z"/>
		<path class="st0" d="M46.43,134.92c0.54,0.33,0.88,0.74,1.02,1.24c0.16,0.55,0.04,1.15-0.36,1.8l-3.27,5.35
			c-0.4,0.65-0.88,1.03-1.44,1.14c-0.51,0.1-1.03-0.01-1.57-0.34c-0.54-0.33-0.88-0.74-1.02-1.24c-0.16-0.55-0.04-1.16,0.36-1.8
			l0.54-0.88l0.47,0.29l-0.54,0.88c-0.31,0.51-0.41,0.97-0.31,1.36c0.09,0.35,0.35,0.65,0.78,0.91c0.42,0.26,0.82,0.35,1.17,0.28
			c0.4-0.08,0.76-0.38,1.07-0.89l3.27-5.35c0.31-0.51,0.41-0.96,0.31-1.36c-0.09-0.35-0.35-0.65-0.78-0.92
			c-0.42-0.26-0.82-0.35-1.17-0.27c-0.4,0.08-0.76,0.38-1.07,0.89l-0.79,1.29l-0.48-0.29l0.79-1.29c0.4-0.65,0.88-1.03,1.44-1.14
			C45.37,134.48,45.89,134.59,46.43,134.92z"/>
		<path class="st0" d="M38.73,129.41c0.49,0.41,0.76,0.86,0.82,1.37c0.08,0.57-0.12,1.16-0.61,1.74l-4.02,4.82
			c-0.49,0.58-1.02,0.89-1.6,0.91c-0.51,0.03-1.01-0.16-1.49-0.56c-0.49-0.41-0.77-0.87-0.83-1.37c-0.07-0.58,0.13-1.17,0.61-1.74
			l4.02-4.82c0.48-0.57,1.01-0.88,1.6-0.91C37.74,128.81,38.24,129,38.73,129.41z M32.18,137.25c0.36,0.3,0.73,0.45,1.1,0.43
			c0.42-0.02,0.82-0.26,1.2-0.71l4.02-4.82c0.38-0.46,0.55-0.9,0.49-1.31c-0.04-0.36-0.25-0.7-0.62-1.01
			c-0.39-0.32-0.76-0.47-1.12-0.44c-0.42,0.02-0.83,0.26-1.2,0.71l-4.02,4.81c-0.38,0.45-0.54,0.89-0.49,1.31
			C31.6,136.61,31.81,136.95,32.18,137.25z"/>
		<path class="st0" d="M30.34,121.25l0.39,0.44l-2.5,4.2l0.06,0.07l1.07,1.2l3.48-3.11l0.37,0.41l-7.84,7l-1.44-1.61
			c-0.42-0.47-0.63-0.96-0.62-1.48c0.01-0.57,0.3-1.11,0.87-1.62l1-0.89c0.56-0.51,1.14-0.73,1.71-0.68
			c0.32,0.04,0.62,0.16,0.91,0.35L30.34,121.25z M26.84,125.74c-0.41-0.05-0.85,0.13-1.3,0.53l-1,0.89
			c-0.45,0.4-0.67,0.81-0.67,1.23c-0.01,0.37,0.15,0.73,0.47,1.09l1.07,1.2l3.53-3.15l-1.07-1.2
			C27.56,125.97,27.21,125.77,26.84,125.74z"/>
		<path class="st0" d="M24.82,113.53l0.32,0.49l-3.09,3.8l0.05,0.07l0.88,1.34l3.9-2.57l0.31,0.46l-8.78,5.78l-1.19-1.81
			c-0.34-0.53-0.48-1.04-0.39-1.55c0.1-0.56,0.46-1.06,1.09-1.47l1.12-0.74c0.64-0.42,1.23-0.56,1.79-0.42
			c0.31,0.09,0.59,0.25,0.86,0.48L24.82,113.53z M20.71,117.46c-0.41-0.11-0.86,0.01-1.36,0.34l-1.11,0.73
			c-0.5,0.33-0.79,0.7-0.85,1.11c-0.06,0.36,0.04,0.75,0.31,1.15l0.88,1.34l3.95-2.6l-0.88-1.34
			C21.37,117.79,21.06,117.55,20.71,117.46z"/>
		<path class="st0" d="M11.69,109.77l1.36,2.91l3.89-1.82l-0.96-2.05l0.5-0.24l0.96,2.05l4.12-1.93l-1.36-2.91l0.5-0.24l1.6,3.41
			l-9.51,4.46l-1.6-3.41L11.69,109.77z"/>
		<path class="st0" d="M17.61,96.64l-2.47,1.37l0.84,2.77l2.82-0.22l0.16,0.55L8.22,101.9l-0.16-0.53l9.39-5.27L17.61,96.64z
			 M15.4,100.82l-0.76-2.52l-5.4,2.99L15.4,100.82z"/>
	</g>
</g>
</svg>
